<?xml version="1.0" encoding="UTF-8" standalone="no"?>
<!-- Created with Inkscape (http://www.inkscape.org/) -->

<svg
   width="181.04893mm"
   height="70.986336mm"
   viewBox="0 0 181.04893 70.986335"
   version="1.1"
   id="svg5"
   xml:space="preserve"
   inkscape:export-filename="newEgg.svg"
   inkscape:export-xdpi="96"
   inkscape:export-ydpi="96"
   xmlns:inkscape="http://www.inkscape.org/namespaces/inkscape"
   xmlns:sodipodi="http://sodipodi.sourceforge.net/DTD/sodipodi-0.dtd"
   xmlns="http://www.w3.org/2000/svg"
   xmlns:svg="http://www.w3.org/2000/svg"><sodipodi:namedview
     id="namedview7"
     pagecolor="#ffffff"
     bordercolor="#000000"
     borderopacity="0.25"
     inkscape:showpageshadow="2"
     inkscape:pageopacity="0.0"
     inkscape:pagecheckerboard="0"
     inkscape:deskcolor="#d1d1d1"
     inkscape:document-units="mm"
     showgrid="false" /><defs
     id="defs2" /><g
     inkscape:label="Layer 1"
     inkscape:groupmode="layer"
     id="layer1"
     transform="translate(-46.222022,-95.706668)"><path
       style="fill:#000000;stroke-width:0.0879999"
       d="m 53.636872,147.50433 -0.417908,1.62877 -0.344657,0.50744 -0.23721,0.15023 -0.419073,0.10279 -0.403257,-0.0158 -0.340003,-0.0712 -3.067926,-2.62513 -0.221398,-0.16605 -0.292561,-0.30046 -0.134418,-0.41908 -0.07116,-0.38744 -0.03953,-0.51396 0.09488,-0.61675 0.553493,-2.13489 0.901401,-3.44747 0.774888,-3.08374 1.122799,-3.33677 1.32838,-3.46328 1.312569,-3.27351 1.233495,-2.65676 1.502336,-3.13118 1.533964,-2.83072 1.976758,-3.35258 1.818616,-2.8149 2.055828,-2.73583 2.293038,-2.81491 2.862345,-2.98885 3.067928,-2.51444 2.814902,-1.881872 2.909787,-1.375822 1.94513,-0.648378 1.138613,-0.237209 0.917215,-0.158142 1.391637,-0.189769 h 1.360008 l 1.265127,0.04744 1.05954,0.110699 2.166527,0.442793 1.707917,0.600935 2.0242,0.948844 1.581407,0.980472 1.723731,1.106984 1.723734,1.375825 2.625136,2.41955 1.56559,1.45489 1.40745,1.66048 1.48653,1.96094 1.75536,2.60932 1.66047,2.467 1.9135,3.24188 1.47071,2.64095 2.64095,6.05678 1.45918,4.36112 1.03962,4.28883 1.53229,5.84281 c 1.51991,3.80055 -0.73104,8.57225 1.10687,12.22962 l -1.30304,13.07015 c -0.24812,-1.71328 -2.31175,-0.95636 -2.61389,-2.72868 -2.90598,-17.04603 -6.58257,-38.85643 -15.782272,-51.36093 -4.159501,-4.84694 -9.960562,-8.63158 -15.943464,-9.05311 -6.727664,1.64889 -10.705608,3.69697 -13.923019,7.35412 -3.926582,4.40108 -4.920894,6.14817 -7.326872,11.15066 l -5.218173,12.37884 z"
       id="path466"
       sodipodi:nodetypes="ccccccccccccccccccccccccccccccccccccccccccccccccccccccccccscccccc" /><path
       style="fill:#000000;stroke-width:0.120537"
       d="m 66.430219,125.92685 14.134008,11.79371 -10.890136,-0.3888 -5.213361,-13.08972 z"
       id="path546-2" /><path
       style="fill:#000000;stroke-width:0.120537"
       d="m 101.89718,125.69618 -14.134016,11.79371 10.89014,-0.3888 5.213356,-13.08972 z"
       id="path546-2-9" /><path
       style="fill:#000000;stroke-width:0.0879999"
       d="m 50.711745,145.82538 -0.229304,0.89349 -0.264885,1.45094 -0.197676,1.87397 -0.42698,3.54235 -0.189768,1.4707 -0.126513,0.41117 -0.07907,0.14233 -0.363724,0.3479 -0.395351,0.20559 -0.379537,0.0949 -0.395352,0.0158 -0.316281,-0.1107 -0.490236,-0.31629 -0.158141,-0.36372 v -0.34791 l 0.04744,-1.04373 0.173954,-2.53025 0.158141,-1.4707 0.142326,-1.73955 0.142327,-1.48652 0.284653,-1.62886 z"
       id="path570" /><path
       style="fill:#000000;stroke-width:0.0879999"
       d="m 116.40972,144.87859 -0.10258,0.0113 0.46257,2.66862 0.19767,1.87397 0.42698,3.54235 0.18977,1.4707 0.12652,0.41117 0.0791,0.14233 0.36372,0.3479 0.39535,0.20559 0.37954,0.0949 0.39535,0.0158 0.31628,-0.1107 0.49024,-0.31629 0.15814,-0.36372 v -0.34791 l -0.0474,-1.04373 -0.17396,-2.53025 -0.15814,-1.4707 -0.14232,-1.73955 -0.14233,-1.48652 -1.10062,-5.31337 z"
       id="path570-3"
       sodipodi:nodetypes="ccccccccccccccccccccccc" /><path
       style="fill:#000000;stroke-width:0.0958319"
       d="m 118.67328,152.69328 0.19931,2.36699 -3.04988,8.49683 c 0.97114,3.35734 2.62975,2.72374 3.72166,3.07785 l 0.2974,-0.0386 0.37403,0.0342 0.16323,-0.035 0.39206,0.0632 0.32537,-0.0951 0.51807,-0.31817 0.19197,-0.41157 0.0331,-0.41073 0.052,-1.23752 -0.0277,-1.03752 -0.0177,-2.72928 -0.28838,-2.20166 -0.25842,-2.25856 -1.58864,-9.40059 z"
       id="path570-3-8"
       sodipodi:nodetypes="ccccccccccccccccccc" /><path
       style="fill:#000000;stroke-width:0.0879999"
       d="m 56.954798,134.84669 -2.89576,11.51549 -0.546958,6.82166 -0.688415,5.29546 -0.2548,5.80876 -0.384235,1.0275 -0.0869,0.42133 -0.0652,0.1492 -0.32903,0.38087 -0.37403,0.24222 -0.36881,0.13052 -0.39206,0.0533 -3.551438,-0.11183 -0.51807,-0.26829 -0.19197,-0.34705 -0.0331,-0.34634 -0.052,-1.04351 0.0277,-0.87486 0.0177,-2.3014 0.0871,-1.95079 0.0795,-1.90448 0.38743,-4.15212 z"
       id="path570-3-8-8"
       sodipodi:nodetypes="ccccccccccccccccccccccc" /><circle
       id="path1008"
       style="fill:#000000;stroke:none;stroke-width:0.264583"
       cx="150.72133"
       cy="132.39529"
       r="0.132" /><circle
       id="path1010"
       style="fill:#000000;stroke:none;stroke-width:0.264583"
       cx="151.03761"
       cy="150.54982"
       r="0.132" /><path
       style="fill:#000000;stroke-width:0.0879999"
       d="m 140.44454,134.05793 v 19.04013 l -0.0122,0.40955 -0.0895,0.26838 -0.0895,0.16773 -0.21246,0.13418 h -9.65026 l -0.35783,-0.0112 -0.26837,-0.20128 -0.16774,-0.24601 -0.0559,-0.19009 -0.0447,-0.42493 v -39.06196 l 0.0168,-0.33862 0.0559,-0.17333 0.0615,-0.14537 0.13419,-0.20687 0.16214,-0.10064 0.20687,-0.0391 h 9.86273 l 0.33764,0.0551 0.18977,0.0949 0.13442,0.0949 7.47214,17.36384 0.41116,0.75908 0.2214,0.44279 0.31344,0.56821 0.16773,0.123 0.10064,-0.0783 0.10064,-0.3131 V 113.8278 l 0.0173,-0.31233 0.0791,-0.26489 0.15024,-0.1779 0.15023,-0.0751 h 9.86283 l 0.21247,0.002 0.11741,0.028 0.13419,0.0895 0.12859,0.1845 0.0559,0.24601 v 39.84787 l 0.006,0.23483 -0.12301,0.24601 -0.10064,0.123 -0.32428,0.1901 h -10.01968 l -0.36901,-0.0671 -0.29074,-0.1901 -0.22365,-0.35783 z"
       id="path1012" /><path
       style="fill:#000000;stroke-width:0.0268225"
       d="m 191.55462,141.32331 v 9.73842 l -0.004,0.23176 -0.0368,0.0984 -0.19651,0.18919 -1.27113,0.68104 -1.86679,0.78697 -2.03873,0.63565 -2.80019,0.60537 -2.84932,0.33295 h -2.4563 l -2.70193,-0.15134 -2.57912,-0.54483 -1.17903,-0.3935 -1.94048,-0.87779 -1.57203,-0.96858 -1.8668,-1.63452 -1.21586,-1.37721 -1.08078,-1.64964 -0.63864,-1.36208 -0.88426,-2.42148 -0.71234,-3.07226 -0.39301,-3.64736 -0.0859,-2.48202 0.0737,-2.83011 0.25792,-2.79984 0.62634,-3.31442 0.81058,-2.54255 0.94569,-2.01286 1.20359,-1.87665 1.00708,-1.11994 1.35097,-1.22587 1.52291,-1.04427 1.81766,-0.90806 1.87907,-0.6205 2.22296,-0.54484 2.03873,-0.19675 1.91592,-0.0454 1.54747,0.0756 1.43694,0.0908 1.86679,0.25728 1.55976,0.3481 1.51062,0.46916 1.52291,0.48429 1.41238,0.59023 1.3264,0.60537 0.35616,0.22702 0.0983,0.1059 0.0859,0.15135 0.0615,0.36323 0.0123,1.37721 V 128.369 l 2.8e-4,0.10167 -0.004,0.0442 -0.008,0.0241 -0.0228,0.0267 -0.0467,0.0226 h -10.38173 l -0.12895,-0.0342 -0.0307,-0.0454 -0.006,-0.2724 v -2.85282 l -0.0554,-0.65077 -0.1351,-0.63565 -0.23335,-0.5751 -0.39301,-0.52969 -0.40529,-0.37837 -0.5895,-0.34809 -0.63865,-0.18161 -0.58951,-0.0152 h -0.85971 l -0.68776,0.18161 -0.60181,0.24216 -0.393,0.36321 -0.2702,0.3935 -0.29475,0.52969 -0.15965,0.59024 -0.0983,0.63563 -0.0491,0.5751 v 16.49207 l 0.0323,0.79192 0.0695,0.44947 0.15632,0.47085 0.2258,0.57789 0.17368,0.36386 0.29527,0.36385 0.41684,0.36385 0.38212,0.17123 0.50369,0.17123 0.24317,0.0214 0.52106,0.0214 0.66001,-0.0428 0.64264,-0.10705 0.71211,-0.21403 0.71212,-0.53508 0.39948,-0.57789 0.19106,-0.51367 0.0868,-0.62069 0.0694,-0.59928 0.0347,-0.70631 0.0174,-0.6421 5.4e-4,-0.14589 -0.0153,-0.0454 -0.0553,-0.0643 -0.14737,-0.019 h -2.08786 l -0.0691,-0.0169 -0.0137,-0.0246 -0.006,-0.036 v -0.0624 -7.09795 l 0.0153,-0.10592 0.0277,-0.0756 0.0491,-0.0643 0.0399,-0.0264 0.0706,-0.0264 0.0828,-0.0226 0.11974,-0.0115 h 14.50448 l 0.0491,-0.002 0.0615,0.0115 0.0323,0.0132 0.0399,0.0549 0.0277,0.0965 v 7.15851 l -0.002,0.0983 v 0.053 l -0.043,0.068 -0.0246,0.0226 -0.11669,0.0152 h -0.35002 -1.57767 l -0.0456,0.004 -0.0407,0.012 -0.0255,0.0194 -0.006,0.009 -0.005,0.0104 -0.013,0.0161 -0.009,0.0234 -0.0147,0.0321 -0.007,0.0335 -0.003,0.0275 -0.003,0.0314 5.5e-4,0.0467 z"
       id="path1028" /><path
       style="fill:#000000;stroke-width:0.0268225"
       d="m 224.48952,140.93998 v 9.73842 l -0.004,0.23176 -0.0368,0.0984 -0.19651,0.18919 -1.27113,0.68104 -1.86679,0.78697 -2.03873,0.63565 -2.80019,0.60537 -2.84932,0.33295 h -2.4563 l -2.70193,-0.15134 -2.57912,-0.54483 -1.17903,-0.3935 -1.94048,-0.87779 -1.57203,-0.96858 -1.8668,-1.63452 -1.21586,-1.37721 -1.08078,-1.64964 -0.63864,-1.36208 -0.88426,-2.42148 -0.71234,-3.07226 -0.39301,-3.64736 -0.0859,-2.48202 0.0737,-2.83011 0.25792,-2.79984 0.62634,-3.31442 0.81058,-2.54255 0.94569,-2.01286 1.20359,-1.87665 1.00708,-1.11994 1.35097,-1.22587 1.52291,-1.04427 1.81766,-0.90806 1.87907,-0.6205 2.22296,-0.54484 2.03873,-0.19675 1.91592,-0.0454 1.54747,0.0756 1.43694,0.0908 1.86679,0.25728 1.55976,0.3481 1.51062,0.46916 1.52291,0.48429 1.41238,0.59023 1.3264,0.60537 0.35616,0.22702 0.0983,0.1059 0.0859,0.15135 0.0615,0.36323 0.0123,1.37721 v 10.26507 l 2.8e-4,0.10167 -0.004,0.0442 -0.008,0.0241 -0.0228,0.0267 -0.0467,0.0226 h -10.38173 l -0.12895,-0.0342 -0.0307,-0.0454 -0.006,-0.2724 v -2.85282 l -0.0554,-0.65077 -0.1351,-0.63565 -0.23335,-0.5751 -0.39301,-0.52969 -0.40529,-0.37837 -0.5895,-0.34809 -0.63865,-0.18161 -0.58951,-0.0152 H 210.062 l -0.68776,0.18161 -0.60181,0.24216 -0.393,0.36321 -0.2702,0.3935 -0.29475,0.52969 -0.15965,0.59024 -0.0983,0.63563 -0.0491,0.5751 v 16.49207 l 0.0323,0.79192 0.0695,0.44947 0.15632,0.47085 0.2258,0.57789 0.17368,0.36386 0.29527,0.36385 0.41684,0.36385 0.38212,0.17123 0.50369,0.17123 0.24317,0.0214 0.52106,0.0214 0.66001,-0.0428 0.64264,-0.10705 0.71211,-0.21403 0.71212,-0.53508 0.39948,-0.57789 0.19106,-0.51367 0.0868,-0.62069 0.0694,-0.59928 0.0347,-0.70631 0.0174,-0.6421 5.4e-4,-0.14589 -0.0153,-0.0454 -0.0553,-0.0643 -0.14737,-0.019 h -2.08786 l -0.0691,-0.0169 -0.0137,-0.0246 -0.006,-0.036 v -0.0624 -7.09795 l 0.0153,-0.10592 0.0277,-0.0756 0.0491,-0.0643 0.0399,-0.0264 0.0706,-0.0264 0.0828,-0.0226 0.11974,-0.0115 h 14.50448 l 0.0491,-0.002 0.0615,0.0115 0.0323,0.0132 0.0399,0.0549 0.0277,0.0965 v 7.15851 l -0.002,0.0983 v 0.053 l -0.043,0.068 -0.0246,0.0226 -0.11669,0.0152 h -0.35002 -1.57767 l -0.0456,0.004 -0.0407,0.012 -0.0255,0.0194 -0.006,0.009 -0.005,0.0104 -0.013,0.0161 -0.009,0.0234 -0.0147,0.0321 -0.007,0.0335 -0.003,0.0275 -0.003,0.0314 5.5e-4,0.0467 z"
       id="path1028-9" /></g></svg>
